Coordinates
version=1
nRows=12
nColumns=46
inDegrees=yes

Units are S.I. units (second, meters, Newtons, ...)
Angles are in degrees.

endheader
time	pelvis_tilt	pelvis_list	pelvis_rotation	pelvis_tx	pelvis_ty	pelvis_tz	bb_angle	bb_tx	bb_ty	bb_tz	hip_flexion_r	hip_adduction_r	hip_rotation_r	knee_angle_r	knee_angle_r_beta	ankle_angle_r	subtalar_angle_r	mtp_angle_r	crank_angle_r	hip_flexion_l	hip_adduction_l	hip_rotation_l	knee_angle_l	knee_angle_l_beta	ankle_angle_l	subtalar_angle_l	mtp_angle_l	crank_angle_l	lumbar_extension	lumbar_bending	lumbar_rotation	arm_flex_r	arm_add_r	arm_rot_r	elbow_flex_r	pro_sup_r	wrist_flex_r	wrist_dev_r	arm_flex_l	arm_add_l	arm_rot_l	elbow_flex_l	pro_sup_l	wrist_flex_l	wrist_dev_l
      5.00500000	    -28.69202694	     -5.83565933	     -5.47623151	      0.43585559	      1.21055199	     -0.23452726	      0.00000000	      0.50000000	      0.00000000	      0.25000000	     74.84014578	      1.61046643	     -5.73291198	     83.42907608	      1.45611207	      6.02341076	     -4.37846810	      0.00000000	      0.00000000	     39.36361308	    -14.88949264	     -2.93346963	     52.66995052	      0.91926405	    -18.15390850	     -5.36397859	      0.00000000	      0.00000000	    -62.06777253	      7.41884638	      9.76338695	     57.67373689	    -17.47363531	     27.29839243	     85.35637705	     58.93029824	      0.00000000	      0.00000000	     40.98070396	    -13.39039731	      7.21369346	     90.01230524	     53.59046377	      0.00000000	      0.00000000
      5.01000000	    -28.74979896	     -5.27140645	     -5.30282266	      0.43626974	      1.21080718	     -0.23425177	      0.00000000	      0.50000000	      0.00000000	      0.25000000	     73.62806969	      1.36768772	     -5.42561646	     81.08402467	      1.41518320	      6.67226625	     -4.38995985	      0.00000000	      0.00000000	     40.59117949	    -14.49349455	     -2.75877256	     55.19321307	      0.96330329	    -18.65424249	     -5.41313668	      0.00000000	      0.00000000	    -61.90299834	      7.04239345	      9.22632855	     56.94708218	    -17.15893244	     26.55395067	     85.60431430	     58.88049096	      0.00000000	      0.00000000	     40.97095915	    -13.48654893	      7.20488722	     90.03002492	     53.59908971	      0.00000000	      0.00000000
      5.01500000	    -28.73428329	     -4.58407542	     -5.11994113	      0.43694712	      1.21094628	     -0.23390327	      0.00000000	      0.50000000	      0.00000000	      0.25000000	     72.32411619	      1.06453351	     -5.01626770	     78.73602377	      1.37420285	      7.05716787	     -4.62918239	      0.00000000	      0.00000000	     41.69802797	    -13.97923354	     -2.70647826	     57.64631844	      1.00611806	    -19.13222614	     -5.51266985	      0.00000000	      0.00000000	    -61.71348095	      6.43308755	      9.13083435	     55.13545375	    -17.02267476	     24.17648230	     86.81536497	     58.77327855	      0.00000000	      0.00000000	     41.53621627	    -12.99031699	      7.89920310	     89.29536166	     53.60489641	      0.00000000	      0.00000000
      5.02000000	    -28.71988007	     -3.98302577	     -4.88404370	      0.43765134	      1.21107654	     -0.23359516	      0.00000000	      0.50000000	      0.00000000	      0.25000000	     70.94384038	      0.68726364	     -4.79140302	     76.28619793	      1.33144533	      7.24528133	     -4.79602656	      0.00000000	      0.00000000	     42.85000377	    -13.49958663	     -2.55940110	     60.07249014	      1.04846274	    -19.65115248	     -5.64724386	      0.00000000	      0.00000000	    -61.48634433	      6.02778325	      8.52725471	     54.53604735	    -16.99800147	     23.87345348	     86.78879649	     58.73844872	      0.00000000	      0.00000000	     41.61997766	    -13.03634417	      7.99692420	     89.09034434	     53.58612737	      0.00000000	      0.00000000
      5.02500000	    -28.76865101	     -3.33754475	     -4.57336299	      0.43818823	      1.21076962	     -0.23340278	      0.00000000	      0.50000000	      0.00000000	      0.25000000	     69.63498162	      0.29393678	     -4.43994832	     73.82679066	      1.28852057	      7.12030878	     -5.16050222	      0.00000000	      0.00000000	     44.14702019	    -12.92010698	     -2.37665093	     62.54688963	      1.09164916	    -20.16437684	     -5.87729180	      0.00000000	      0.00000000	    -61.13458800	      5.51827840	      8.54204304	     52.73622869	    -17.08351599	     21.63128209	     87.89280424	     58.65400612	      0.00000000	      0.00000000	     42.35484722	    -12.35654848	      9.01905280	     87.71791126	     53.52823355	      0.00000000	      0.00000000
      5.03000000	    -28.64296927	     -2.69252496	     -4.23099585	      0.43911417	      1.21058701	     -0.23332759	      0.00000000	      0.50000000	      0.00000000	      0.25000000	     68.10622916	     -0.24119010	     -4.23522153	     71.41079037	      1.24635341	      7.11316429	     -5.30959816	      0.00000000	      0.00000000	     45.21964667	    -12.30420368	     -2.24864551	     64.94343934	      1.13347684	    -20.61492662	     -6.09265800	      0.00000000	      0.00000000	    -60.99086435	      5.16884931	      7.78952903	     52.16029548	    -17.03485237	     21.43281742	     87.84428260	     58.63009632	      0.00000000	      0.00000000	     42.37772893	    -12.37858061	      9.13070871	     87.45648763	     53.50229882	      0.00000000	      0.00000000
      5.03500000	    -28.56334987	     -2.07769983	     -3.80944484	      0.43986091	      1.21015446	     -0.23329999	      0.00000000	      0.50000000	      0.00000000	      0.25000000	     66.61964120	     -0.85231443	     -4.11950309	     68.99798211	      1.20424197	      6.74200305	     -5.41534772	      0.00000000	      0.00000000	     46.41810137	    -11.63515594	     -2.00682181	     67.33324820	      1.17518688	    -21.14051322	     -6.36621330	      0.00000000	      0.00000000	    -60.73870973	      4.92007825	      7.05555163	     51.52725463	    -16.82400656	     21.00246592	     87.81785630	     58.58221116	      0.00000000	      0.00000000	     42.49112481	    -12.38994603	      9.38157709	     87.05526444	     53.46920223	      0.00000000	      0.00000000
      5.04000000	    -28.36524734	     -1.20101821	     -3.50072027	      0.44081982	      1.20974584	     -0.23291628	      0.00000000	      0.50000000	      0.00000000	      0.25000000	     65.09103209	     -1.51609492	     -3.68638098	     66.74693704	      1.16495382	      6.62925874	     -5.35630261	      0.00000000	      0.00000000	     47.39708827	    -10.89461040	     -2.16193313	     69.62369928	      1.21516279	    -21.57071276	     -6.30990856	      0.00000000	      0.00000000	    -60.63568659	      4.34978370	      6.15782177	     51.28603875	    -16.85324522	     20.82394685	     87.84324929	     58.56803055	      0.00000000	      0.00000000	     42.44832713	    -12.22961377	      9.59266125	     86.87953722	     53.46690891	      0.00000000	      0.00000000
      5.04500000	    -28.39087771	     -0.74300011	     -2.96537639	      0.44136118	      1.20878641	     -0.23286379	      0.00000000	      0.50000000	      0.00000000	      0.25000000	     63.73054008	     -2.18932878	     -3.77284646	     64.42876714	      1.12449412	      5.77668815	     -5.26456839	      0.00000000	      0.00000000	     48.85213309	    -10.24357167	     -1.70257315	     72.01307144	      1.25686520	    -22.29367370	     -6.79295070	      0.00000000	      0.00000000	    -60.12198862	      4.11225323	      6.06616607	     49.34902467	    -15.75020141	     17.77528126	     88.15749290	     58.26613177	      0.00000000	      0.00000000	     43.61259797	    -12.04032033	     11.20467280	     85.02063133	     53.35367373	      0.00000000	      0.00000000
      5.05000000	    -28.20023597	     -0.08000808	     -2.46568301	      0.44214716	      1.20808230	     -0.23292023	      0.00000000	      0.50000000	      0.00000000	      0.25000000	     62.19496581	     -3.02013021	     -3.74848983	     62.28356349	      1.08705325	      5.30486796	     -4.88106413	      0.00000000	      0.00000000	     49.99419420	     -9.46112985	     -1.53771153	     74.28816587	      1.29657309	    -22.84957406	     -7.01834188	      0.00000000	      0.00000000	    -59.94541916	      3.70095636	      5.91791615	     47.94283770	    -16.22576416	     16.37978029	     89.32369642	     58.30792021	      0.00000000	      0.00000000	     44.56119405	    -11.42480585	     12.40829315	     83.72230934	     53.30233775	      0.00000000	      0.00000000
      5.05500000	    -27.96555591	      0.70715022	     -2.13068834	      0.44295944	      1.20713346	     -0.23257197	      0.00000000	      0.50000000	      0.00000000	      0.25000000	     60.68278127	     -3.75714226	     -3.47195517	     60.28187959	      1.05211728	      4.88135918	     -4.53886110	      0.00000000	      0.00000000	     51.05456879	     -8.76149533	     -1.65353440	     76.54516489	      1.33596515	    -23.24594413	     -6.93322654	      0.00000000	      0.00000000	    -59.79517341	      3.15225370	      5.05499199	     47.62781243	    -16.27170169	     16.32128993	     89.31106220	     58.28571823	      0.00000000	      0.00000000	     44.56614353	    -11.27348368	     12.56682302	     83.64077641	     53.29778816	      0.00000000	      0.00000000
      5.06000000	    -27.79991110	      1.19878069	     -1.53122416	      0.44363976	      1.20622079	     -0.23292146	      0.00000000	      0.50000000	      0.00000000	      0.25000000	     59.09455590	     -4.63968263	     -3.74306424	     58.14653927	      1.01484856	      4.19453682	     -3.93329059	      0.00000000	      0.00000000	     52.32574526	     -7.99598060	     -1.31305380	     78.76526971	      1.37471329	    -23.75329313	     -7.14912096	      0.00000000	      0.00000000	    -59.53975338	      3.08100433	      4.40954015	     46.90163654	    -16.12265113	     16.11465310	     89.15054325	     58.21637691	      0.00000000	      0.00000000	     44.73723969	    -11.26258353	     12.88906151	     83.36845807	     53.27380847	      0.00000000	      0.00000000
